# xmcd CD database file
#
# Track frame offsets:
#	150
#	4622
#	19404
#	40038
#	59512
#	82214
#	98219
#	116471
#	132595
#	149744
#	169121
#	185891
#	205199
#
# Disc length: 2958 seconds
#
# Revision: 8
# Processed by: cddbd v1.5.1PL0 Copyright (c) Steve Scherf et al.
# Submitted via: CDex 1.51
#
DISCID=c10b8c0d
DTITLE=Dreams Come True - monkey girl odyssey
DYEAR=2001
DGENRE=JPop
TTITLE0=my monkey girl -opening theme-
TTITLE1=flowers
TTITLE2=24/7 -TWENTY FOUR/SEVEN-
TTITLE3=プライドなんて知らない
TTITLE4=SNOW DANCE
TTITLE5=思い出の神様
TTITLE6=ごめんねDJ
TTITLE7=スキスキスー
TTITLE8=今日この佳き日
TTITLE9=好きだけじゃだめなんだ
TTITLE10=いつのまに -mgo ver.-
TTITLE11=カノン
TTITLE12=crystal vine
EXTD=YEAR: 2001
EXTT0=
EXTT1=
EXTT2=
EXTT3=
EXTT4=
EXTT5=
EXTT6=
EXTT7=
EXTT8=
EXTT9=
EXTT10=
EXTT11=
EXTT12=
PLAYORDER=
